# xmcd
#
# Track frame offsets:
#	150
#	17625
#	37052
#	62082
#	81002
#	101720
#	120677
#	140477
#	158532
#	175482
#
# Disc length: 2569 seconds
#
# Revision: 4
# Processed by: cddbd v1.5.2PL0 Copyright (c) Steve Scherf et al.
# Submitted via: EasyCDDAExtractor 15.3.0.1
#
DISCID=810a070a
DTITLE=Millie - Sola
DYEAR=1995
DGENRE=Latin
TTITLE0=Por Primera Vez
TTITLE1=Con Los Brazos Abiertos
TTITLE2=Sola
TTITLE3=Solo Tu
TTITLE4=Regresa
TTITLE5=Y Yo Sin Ti
TTITLE6=Estaremos Juntos
TTITLE7=Entre Cuatro Paredes
TTITLE8=Donde Te Has Ido Amor
TTITLE9=De Seda Pura
EXTD=
EXTT0=
EXTT1=
EXTT2=
EXTT3=
EXTT4=
EXTT5=
EXTT6=
EXTT7=
EXTT8=
EXTT9=
PLAYORDER=
